<svg width="6.704mm" height="12.633mm" version="1.1" viewBox="0 0 6.704 12.633" xmlns="http://www.w3.org/2000/svg">
 <g transform="translate(-84.546 -51.431)">
  <path d="m86.512 56.27-4e-3 -1.7931s-0.0109-0.23328 0.039-0.54942 0.039-0.38038 0.14987-0.68085c0.11085-0.30046 0.11526-0.36016 0.3371-0.67807 0.22185-0.31791 0.37289-0.42464 0.37289-0.42464s0.26904-0.24127 0.51352-0.36394c0.24449-0.12267 0.51118-0.21379 0.68079-0.25125 0.16962-0.03746 0.31062-0.06275 0.68301-0.09157s1.2355 0.05559 1.2355 0.05559l0.72996 0.13656 1.5e-4 1.9777-0.94316-7.94e-4s-0.30165-0.0014-0.48093 0.04847c-0.17928 0.04988-0.43404 0.1175-0.6469 0.41748-0.21287 0.29998-0.19248 0.74372-0.19248 0.74372l-5.1e-4 1.4493 2.1659 0.0019-0.39733 2.2731-1.8699 0.0013 6e-3 5.5027-2.3851 0.02037 0.0105-5.5258-1.9701-0.0017 0.0077-2.2512z" fill="#ffffff" stroke-linecap="round" stroke-width=".265" style="paint-order:stroke fill markers"/>
 </g>
</svg>
